<svg xmlns="http://www.w3.org/2000/svg" width="1024" height="1024" viewBox="0 0 1024 1024">
<g>
<path d="M 622.92 506.02 L 622.95 511.00 C622.99,517.88 623.31,525.22 623.65,527.31 L 624.28 531.13 L 625.59 528.31 C626.12,527.15 627.47,523.85 628.90,520.18 C627.51,523.93 626.55,526.91 625.95,529.30 C625.29,531.90 624.36,534.28 623.88,534.58 C622.84,535.22 622.75,533.29 622.88,513.50 L 622.92 506.02 ZM 575.18 680.29 C568.27,676.94 564.15,668.72 561.00,652.00 C557.15,631.49 554.59,618.57 552.52,609.46 C554.64,618.75 557.24,631.88 561.10,652.50 C563.54,665.51 567.57,674.95 572.00,678.07 C573.38,679.03 576.53,680.10 579.01,680.44 C581.02,680.71 582.33,680.75 583.68,680.38 C580.33,681.81 578.05,681.69 575.18,680.29 ZM 658.26 512.06 C649.96,527.66 646.93,534.66 650.02,531.28 C648.24,533.63 647.05,535.00 646.72,535.00 C646.25,535.00 647.63,531.74 649.80,527.75 C651.89,523.91 655.62,516.99 658.26,512.06 ZM 531.16 362.30 C536.51,361.37 534.29,360.04 526.50,360.01 C523.90,360.01 520.58,359.57 516.33,358.66 C521.23,359.65 525.16,360.00 529.45,360.00 C536.61,360.00 538.15,360.25 537.15,361.25 C536.61,361.79 534.77,362.13 531.16,362.30 ZM 461.05 351.63 C467.95,352.39 476.43,354.22 489.56,357.59 C498.75,359.94 506.44,361.49 513.05,362.29 C506.34,361.99 502.34,361.03 490.00,357.80 C476.64,354.30 468.05,352.40 461.05,351.63 ZM 656.67 522.02 C664.96,509.74 679.31,487.67 683.50,480.55 C688.66,471.77 690.28,469.17 692.62,469.62 C690.27,469.17 688.62,471.84 683.29,480.89 C676.52,492.40 665.00,510.03 656.67,522.02 ZM 619.17 512.94 C619.47,510.04 619.97,508.08 620.75,505.50 L 622.88 498.50 L 622.88 498.79 L 620.80 505.50 C619.99,508.11 619.48,510.05 619.17,512.94 ZM 684.69 466.04 C683.84,466.97 682.92,468.22 681.77,470.02 C682.43,468.91 682.92,468.12 683.20,467.73 C683.58,467.20 684.10,466.61 684.69,466.04 ZM 460.43 671.88 C460.22,671.65 460.00,671.42 459.79,671.19 C459.79,671.18 459.78,671.17 459.77,671.16 C459.99,671.40 460.21,671.64 460.43,671.88 ZM 482.26 679.11 C482.35,679.07 482.44,679.03 482.54,678.98 C482.52,678.99 482.51,679.00 482.49,679.00 C482.41,679.04 482.34,679.08 482.26,679.11 Z" fill="rgba(169,153,132,1)"/>
<path d="M 472.76 680.00 C468.52,678.72 463.53,675.32 459.72,671.12 C452.00,662.56 440.70,637.63 432.03,610.00 C416.85,561.62 411.86,547.10 408.29,540.96 C407.83,540.18 418.90,536.56 419.60,537.26 C420.75,538.41 429.05,563.33 434.45,581.80 C441.30,605.27 449.60,629.73 454.79,641.76 C462.12,658.75 470.96,671.00 475.90,671.00 C481.69,671.00 487.79,658.57 499.47,623.00 C514.11,578.41 516.97,571.25 522.62,565.00 C524.55,562.86 527.73,560.59 529.67,559.94 C545.62,554.68 556.70,574.03 565.51,622.50 C571.39,654.87 572.27,658.78 575.02,664.76 C576.61,668.21 578.59,671.29 579.43,671.61 C583.33,673.11 593.01,662.92 599.03,651.00 C602.37,644.38 609.11,624.99 608.45,623.92 C608.14,623.42 608.31,623.00 608.82,623.00 C609.90,623.00 609.74,623.59 613.81,603.50 C617.84,583.57 619.05,567.59 618.82,537.50 C618.64,514.34 618.78,511.98 620.80,505.50 L 622.97 498.50 L 622.88 513.50 C622.75,533.29 622.84,535.22 623.88,534.58 C624.36,534.28 625.29,531.90 625.95,529.30 C627.75,522.14 632.79,509.64 642.95,487.13 C657.94,453.93 662.70,437.50 663.68,415.50 C665.05,384.77 655.43,367.25 632.26,358.31 C626.32,356.01 624.05,355.70 613.50,355.71 C599.27,355.72 592.01,357.41 573.08,365.14 C549.55,374.76 542.51,377.24 533.50,379.11 C518.87,382.14 508.54,381.29 490.50,375.58 L 482.50 373.05 L 492.50 373.78 C498.00,374.17 506.02,374.44 510.31,374.36 C519.18,374.20 535.53,371.31 537.32,369.58 C537.97,368.94 539.47,368.36 540.65,368.28 C541.84,368.20 544.99,367.24 547.65,366.14 C561.48,360.46 578.23,354.01 584.00,352.17 C615.44,342.10 643.24,347.26 660.74,366.41 C670.84,377.46 675.86,391.31 676.70,410.50 C677.72,433.54 671.85,454.66 653.54,493.86 C636.90,529.47 634.12,539.05 626.45,587.00 C619.21,632.23 604.23,667.92 588.20,678.09 C584.18,680.64 582.89,680.97 579.01,680.44 C576.53,680.10 573.38,679.03 572.00,678.07 C567.57,674.95 563.54,665.51 561.10,652.50 C554.39,616.71 551.50,603.47 548.30,593.76 C542.75,576.92 537.39,570.14 531.68,572.74 C527.54,574.62 522.26,587.01 510.51,622.39 C495.79,666.74 492.02,674.39 482.66,678.92 C478.04,681.16 476.98,681.27 472.76,680.00 ZM 252.00 633.50 C252.00,632.29 256.31,626.97 264.04,618.63 C285.54,595.46 305.85,571.88 315.06,559.42 C318.27,555.07 319.06,553.30 318.33,552.09 C316.90,549.74 310.33,546.76 308.12,547.46 C307.07,547.80 296.82,557.80 285.35,569.70 C265.42,590.38 246.22,608.56 245.30,607.63 C244.05,606.38 264.03,583.24 288.39,557.75 C300.89,544.67 303.94,541.99 307.39,541.10 C310.86,540.19 312.88,538.40 320.37,529.59 C325.25,523.85 330.76,517.68 332.62,515.88 C334.48,514.08 336.00,511.85 336.00,510.92 C336.00,509.99 334.31,507.69 332.25,505.81 C327.18,501.19 320.45,488.09 317.90,477.88 C315.15,466.91 315.63,448.00 318.91,438.12 C325.81,417.30 339.38,401.79 358.36,393.00 C389.22,378.71 422.36,384.86 445.65,409.19 C461.14,425.38 467.88,443.33 466.60,465.00 C465.94,476.05 464.37,482.47 460.07,491.66 C452.58,507.66 441.98,518.51 426.50,526.00 C414.10,532.00 405.31,534.00 391.28,534.00 C379.00,534.00 369.61,531.88 359.21,526.78 L 352.92 523.69 L 349.35 527.09 C341.52,534.56 328.63,550.82 325.93,556.63 C319.05,571.47 285.56,610.94 269.50,623.15 C262.97,628.12 252.00,634.61 252.00,633.50 ZM 326.75 543.75 C328.45,541.41 332.50,536.53 335.75,532.90 C339.00,529.26 342.68,524.85 343.93,523.09 C346.13,520.00 346.15,519.82 344.42,517.91 C343.43,516.82 342.08,516.06 341.42,516.21 C340.76,516.37 334.78,522.32 328.12,529.43 L 316.02 542.37 L 319.26 545.14 C321.04,546.67 322.76,547.94 323.08,547.96 C323.40,547.98 325.05,546.09 326.75,543.75 ZM 406.23 524.56 C432.90,518.18 451.95,499.26 457.55,473.58 C460.59,459.65 457.65,440.46 450.74,429.00 C440.15,411.46 422.53,398.13 405.05,394.42 C374.93,388.04 343.36,403.55 329.89,431.35 C320.46,450.83 320.87,471.56 331.07,491.11 C337.12,502.70 352.98,516.40 366.00,521.27 C378.41,525.91 394.92,527.26 406.23,524.56 ZM 481.20 626.80 C480.54,626.14 480.00,624.79 480.00,623.80 C480.00,622.41 480.80,622.00 483.50,622.00 C487.05,622.00 487.71,623.00 486.39,626.42 C485.67,628.29 482.89,628.49 481.20,626.80 ZM 487.20 609.80 C484.34,606.94 486.65,603.00 491.18,603.00 C493.32,603.00 494.11,603.58 494.59,605.51 C494.95,606.95 494.70,608.66 493.99,609.51 C492.50,611.30 488.86,611.46 487.20,609.80 ZM 495.24 591.33 C490.79,589.54 492.03,582.00 496.78,582.00 C498.33,582.00 500.14,582.54 500.80,583.20 C502.71,585.11 502.20,588.75 499.78,590.44 C497.42,592.09 497.22,592.13 495.24,591.33 ZM 635.62 582.25 C635.89,580.19 636.32,577.09 636.58,575.37 C637.13,571.67 643.32,561.81 649.97,554.04 C663.36,538.38 700.00,480.98 700.00,475.65 C700.00,474.76 698.20,472.84 696.01,471.39 C691.01,468.08 690.71,468.29 683.50,480.55 C677.96,489.95 654.72,525.43 651.11,529.99 C644.23,538.65 653.21,520.43 674.49,482.50 C682.95,467.44 684.45,465.34 688.14,463.43 C690.53,462.19 692.71,458.66 699.11,445.69 C707.55,428.59 714.26,413.88 713.79,413.53 C713.63,413.42 711.46,411.95 708.98,410.27 C697.18,402.31 692.01,392.65 691.23,377.16 C690.64,365.55 692.43,358.10 698.85,345.50 C702.38,338.58 705.29,334.63 711.47,328.40 C726.74,313.00 740.42,306.70 758.50,306.75 C777.88,306.80 789.54,314.23 796.15,330.72 C799.20,338.33 799.42,356.19 796.58,365.50 C788.45,392.10 765.74,412.49 740.07,416.23 L 732.36 417.35 L 727.03 429.93 C724.10,436.84 718.64,448.58 714.91,456.00 C709.03,467.68 708.12,470.22 708.15,474.76 C708.20,480.69 706.72,483.95 694.20,505.47 C680.73,528.63 670.01,544.90 656.72,562.37 C649.30,572.11 637.11,586.00 635.97,586.00 C635.51,586.00 635.35,584.31 635.62,582.25 ZM 704.70 463.74 C706.93,460.45 715.03,443.69 722.13,427.64 C726.21,418.45 726.18,416.00 722.00,416.00 C719.66,416.00 720.02,415.38 707.54,440.68 L 696.61 462.86 L 699.05 464.90 C700.40,466.02 701.72,466.95 702.00,466.96 C702.28,466.97 703.49,465.53 704.70,463.74 ZM 740.25 407.52 C760.65,402.21 780.08,385.53 787.44,367.00 C791.99,355.55 792.27,338.80 788.04,329.82 C782.78,318.62 774.38,313.08 761.35,312.22 C739.25,310.76 714.72,326.92 703.40,350.40 C698.32,360.93 696.41,370.88 697.85,379.29 C699.91,391.33 705.74,400.30 714.38,404.71 C723.26,409.24 730.59,410.04 740.25,407.52 ZM 499.56 566.78 C497.33,563.60 497.54,558.32 499.93,557.04 C502.55,555.64 507.33,555.73 508.80,557.20 C509.46,557.86 510.00,559.89 510.00,561.70 C510.00,568.03 502.86,571.50 499.56,566.78 ZM 504.37 545.31 C500.27,544.51 495.03,535.90 497.18,533.50 C497.68,532.95 498.65,531.67 499.35,530.65 C500.16,529.47 502.31,528.61 505.26,528.27 C509.48,527.80 510.20,528.04 513.08,530.92 C515.84,533.68 516.17,534.57 515.66,537.80 C515.31,540.01 514.02,542.41 512.48,543.75 C509.96,545.94 508.76,546.17 504.37,545.31 ZM 506.31 515.05 C502.37,512.64 501.00,510.18 501.00,505.49 C501.00,499.95 505.38,496.00 511.52,496.00 C519.96,496.00 524.95,501.14 523.58,508.42 C522.18,515.87 513.27,519.29 506.31,515.05 ZM 522.29 483.88 C518.19,482.71 516.00,479.54 516.00,474.78 C516.00,469.38 518.71,467.00 524.83,467.00 C528.58,467.00 530.14,467.52 531.83,469.31 C534.77,472.45 534.73,478.08 531.75,481.36 C528.98,484.41 526.47,485.08 522.29,483.88 ZM 536.00 455.71 C527.99,451.66 530.88,440.00 539.89,440.00 C544.87,440.00 547.90,442.49 548.65,447.20 C549.17,450.41 548.83,451.32 546.20,453.95 C542.93,457.22 539.99,457.73 536.00,455.71 ZM 552.36 432.01 C547.48,430.04 545.54,423.52 548.56,419.22 C549.75,417.51 551.08,417.01 554.31,417.03 C560.16,417.08 562.45,419.08 562.45,424.13 C562.45,427.35 561.87,428.72 559.67,430.61 C556.69,433.17 555.70,433.36 552.36,432.01 ZM 560.04 407.81 C557.51,405.09 557.41,400.84 559.83,398.65 C561.98,396.71 568.30,396.45 569.80,398.26 C575.47,405.09 566.08,414.29 560.04,407.81 ZM 565.20 387.80 C563.22,385.82 563.75,381.20 566.09,379.95 C570.98,377.34 575.66,382.02 573.05,386.91 C571.80,389.25 567.18,389.78 565.20,387.80 ZM 398.00 377.32 C395.52,376.48 393.31,375.61 393.08,375.39 C392.15,374.51 400.73,363.51 406.21,358.55 C426.06,340.58 451.00,338.56 491.49,351.62 C509.59,357.46 520.16,359.99 526.50,360.01 C535.00,360.04 536.87,361.62 529.50,362.54 C519.92,363.74 507.61,362.21 489.56,357.59 C467.52,351.94 458.59,350.61 448.26,351.44 C432.60,352.70 422.97,356.91 413.00,366.85 C409.34,370.51 405.47,374.71 404.42,376.18 C402.50,378.86 402.49,378.86 398.00,377.32 ZM 353.82 369.45 C353.51,368.93 352.94,366.71 352.54,364.52 C352.15,362.33 351.41,359.78 350.92,358.84 C349.86,356.86 344.50,354.00 341.85,354.00 C340.83,354.00 340.00,353.55 340.00,353.00 C340.00,352.45 340.92,352.00 342.05,352.00 C347.74,352.00 352.98,345.85 353.02,339.13 C353.04,334.17 354.70,333.51 355.40,338.18 C355.76,340.59 356.95,344.04 358.05,345.84 C359.84,348.78 361.49,349.82 368.50,352.46 C370.12,353.06 369.57,353.45 365.66,354.47 C359.38,356.11 357.03,358.59 355.56,365.10 C354.91,368.02 354.12,369.98 353.82,369.45 ZM 387.73 337.50 C387.05,330.94 386.96,330.44 385.18,324.34 C383.59,318.88 378.56,314.56 371.29,312.43 C359.91,309.10 360.07,309.17 363.50,309.07 C373.36,308.80 382.61,302.34 385.39,293.80 C386.33,290.88 387.37,285.69 387.70,282.25 C388.02,278.81 388.61,276.00 389.00,276.00 C389.39,276.00 390.01,279.22 390.38,283.15 C391.74,297.83 398.39,306.29 410.30,308.53 C415.28,309.46 414.97,310.60 409.52,311.34 C396.63,313.11 393.24,317.72 389.20,339.00 L 388.35 343.50 L 387.73 337.50 ZM 383.50 518.37 C367.09,515.84 349.59,505.08 340.74,492.08 C339.03,489.56 337.15,487.17 336.57,486.77 C335.98,486.36 335.81,486.02 336.18,486.02 C336.55,486.01 335.54,482.39 333.93,477.97 C329.82,466.70 329.80,455.23 333.87,442.23 C337.41,430.97 341.33,424.71 349.60,417.13 C360.87,406.81 375.53,400.97 390.50,400.85 C428.65,400.55 456.82,434.54 449.92,472.57 C447.50,485.94 437.58,500.44 425.25,508.62 C414.42,515.81 395.53,520.22 383.50,518.37 ZM 403.23 513.54 C423.67,509.21 438.45,496.27 445.04,476.96 C447.96,468.40 448.04,454.25 445.21,445.33 C442.01,435.20 436.69,426.82 428.87,419.59 C411.22,403.24 388.39,399.70 366.80,409.94 C329.56,427.63 324.00,476.06 356.22,502.02 C370.08,513.19 386.22,517.14 403.23,513.54 ZM 713.91 396.58 C711.47,394.93 709.46,392.20 707.56,387.95 C700.75,372.77 706.75,351.35 722.12,335.97 C728.07,330.02 733.52,326.38 742.79,322.14 C749.66,319.00 750.60,318.83 759.37,319.15 C767.66,319.46 769.20,319.83 773.58,322.54 C778.54,325.61 782.07,330.58 783.44,336.42 C784.04,339.00 783.94,339.19 782.56,338.05 C781.70,337.34 781.00,336.09 781.00,335.28 C781.00,332.65 774.55,327.23 769.94,325.98 C751.49,320.99 721.63,340.67 713.11,363.45 C710.74,369.78 710.25,381.44 712.12,387.10 C712.74,388.97 714.54,392.16 716.12,394.19 C720.49,399.79 719.77,400.57 713.91,396.58 ZM 741.53 379.50 C744.09,372.41 746.22,367.77 748.35,364.63 C749.69,362.65 751.62,359.00 752.64,356.52 C753.66,354.04 754.85,352.01 755.28,352.00 C755.71,352.00 756.47,350.99 756.97,349.75 C757.65,348.07 757.89,347.93 757.94,349.22 C758.01,351.33 745.79,375.52 742.90,379.00 C741.21,381.02 740.95,381.12 741.53,379.50 ZM 728.00 379.31 C728.00,378.65 729.79,374.60 731.99,370.31 C734.18,366.01 735.98,361.98 735.99,361.33 C735.99,360.69 736.37,360.02 736.82,359.83 C737.27,359.65 739.63,355.73 742.07,351.13 C749.40,337.29 747.67,344.78 739.98,360.19 C733.27,373.62 728.02,382.02 728.00,379.31 ZM 382.41 475.12 C384.39,472.43 386.00,469.89 386.00,469.47 C386.00,469.05 386.92,467.76 388.05,466.61 C390.11,464.48 397.39,455.04 402.00,448.51 C404.95,444.33 412.54,436.00 413.40,436.00 C414.92,436.00 413.38,438.58 405.09,449.94 C393.02,466.45 381.79,480.00 380.16,480.00 C379.36,480.00 380.25,478.06 382.41,475.12 ZM 360.00 478.02 C360.00,477.28 361.80,474.30 364.00,471.38 C366.20,468.47 368.00,465.62 368.00,465.04 C368.00,464.47 368.37,464.00 368.82,464.00 C369.53,464.00 374.10,458.19 381.73,447.60 C382.95,445.89 385.09,443.25 386.48,441.73 C387.87,440.21 389.00,438.63 389.00,438.22 C389.00,437.82 389.90,436.92 391.00,436.23 C392.10,435.55 393.00,435.35 393.00,435.80 C393.00,437.15 386.06,447.14 375.36,461.19 C364.76,475.11 360.00,480.32 360.00,478.02 Z" fill="rgba(211,184,149,1)"/>
</g>
</svg>