<svg xmlns="http://www.w3.org/2000/svg" width="1024" height="1024" viewBox="0 0 1024 1024">
<g>
<path d="M 396.67 742.75 C396.25,741.02 396.47,734.95 397.00,728.46 C397.00,732.80 397.23,736.10 397.50,735.83 C397.78,735.55 398.49,732.71 399.08,729.52 C401.98,713.81 405.96,706.08 422.56,685.78 C405.70,706.40 401.77,714.20 398.92,730.53 C398.30,734.10 397.96,738.81 398.17,741.01 C398.58,745.29 397.57,746.46 396.67,742.75 ZM 398.85 713.19 C399.05,712.10 399.26,711.21 399.46,710.57 C401.40,704.42 405.31,697.32 411.87,688.23 C404.94,697.87 400.92,705.52 398.85,713.19 Z" fill="rgba(125,119,113,1)"/>
<path d="M 564.90 621.37 C565.68,617.46 566.12,614.44 566.14,612.60 C566.18,609.34 566.49,608.17 567.08,609.10 C567.74,610.14 567.97,609.88 567.98,608.08 C567.99,606.75 568.27,605.93 568.59,606.26 C568.92,606.58 569.22,617.35 569.26,630.17 L 569.30 642.91 L 568.09 645.00 C567.85,645.43 567.62,645.80 567.42,646.10 C567.74,645.19 567.97,643.99 567.97,643.00 C567.97,641.02 567.77,640.81 567.00,642.00 C566.90,642.16 566.80,642.34 566.71,642.56 C566.92,641.63 567.18,640.55 567.50,639.34 C569.18,632.88 569.57,612.47 568.03,611.52 C567.50,611.19 566.86,611.95 566.61,613.21 C566.10,615.81 565.53,618.54 564.90,621.37 ZM 470.70 246.99 C470.16,250.02 470.02,253.66 470.02,259.00 C470.03,266.71 470.64,272.51 472.30,278.31 C470.84,273.59 470.03,269.24 470.01,265.75 C470.01,263.69 469.55,262.00 469.00,262.00 C468.45,262.00 468.00,260.42 468.00,258.50 C468.00,256.58 468.39,255.00 468.86,255.00 C469.33,255.00 469.97,252.58 470.27,249.63 C470.36,248.77 470.50,247.89 470.70,246.99 ZM 612.59 707.25 C612.29,706.29 611.60,702.35 611.06,698.49 C610.46,694.25 609.02,688.07 607.25,681.80 C608.22,684.98 608.90,687.55 609.55,690.29 C610.55,694.53 611.67,698.00 612.03,698.00 C612.24,698.00 612.36,697.70 612.40,697.15 C612.74,699.63 613.06,702.16 613.34,704.75 C613.83,709.19 613.52,710.23 612.59,707.25 ZM 565.89 402.20 C563.14,400.72 563.00,400.87 563.00,401.90 C563.00,402.56 564.77,404.02 567.39,405.71 C563.39,403.30 560.14,401.03 559.50,400.01 C558.48,398.35 562.65,398.87 564.06,400.57 C564.50,401.11 565.12,401.65 565.89,402.20 ZM 362.55 535.73 C359.98,537.56 357.27,539.29 354.50,540.88 C350.35,543.26 358.36,540.89 364.72,537.86 C370.85,534.95 375.75,531.22 381.17,524.74 C375.56,531.42 370.44,535.19 363.67,538.38 C356.16,541.92 350.00,543.58 350.00,542.05 C350.00,541.56 351.46,540.85 353.25,540.47 C355.57,539.98 358.93,538.22 362.55,535.73 ZM 532.91 729.79 C533.96,726.88 535.10,722.81 535.45,720.75 C535.80,718.69 536.49,717.00 536.97,717.00 C537.45,717.00 538.33,715.54 538.92,713.75 C539.51,711.96 542.03,708.02 544.52,705.00 C542.03,708.02 539.51,712.07 538.93,714.00 C538.34,715.92 537.45,718.40 536.94,719.50 C535.20,723.28 531.17,734.59 531.00,736.11 C531.08,735.33 531.90,732.57 532.91,729.79 ZM 467.34 230.26 C467.50,230.08 467.67,229.90 467.83,229.72 C472.04,225.21 472.20,224.87 469.49,226.26 C469.02,226.50 468.52,226.81 467.99,227.17 C468.95,226.44 469.89,225.81 470.78,225.28 C476.24,222.09 477.53,223.01 472.26,226.33 C470.49,227.45 468.85,228.77 467.34,230.26 ZM 570.91 585.02 C570.22,584.27 568.63,584.24 564.07,584.39 C563.66,584.41 563.25,584.43 562.84,584.45 C563.14,584.36 563.38,584.19 563.53,583.96 C564.55,582.30 569.86,582.87 570.83,584.75 C570.86,584.80 570.89,584.89 570.91,585.02 ZM 569.32 649.56 L 569.33 653.50 L 564.62 667.50 C562.62,673.44 560.36,678.98 557.83,684.15 C560.33,679.03 562.54,673.55 564.48,667.69 C566.62,661.23 568.60,653.74 569.32,649.56 ZM 619.90 307.49 C620.51,303.64 620.57,301.17 619.99,300.59 C619.68,300.28 619.44,300.21 619.28,300.37 C619.51,299.47 619.70,298.67 619.84,298.00 L 620.76 293.50 L 620.88 297.50 C620.95,299.94 620.61,303.33 619.90,307.49 ZM 619.01 301.36 C619.00,301.48 619.00,301.61 619.00,301.75 C619.00,303.60 618.50,305.31 612.89,320.15 C615.43,313.02 617.72,306.05 619.01,301.36 ZM 466.39 447.93 C466.24,446.50 466.04,445.54 465.80,445.26 C465.23,444.57 465.00,443.11 465.29,442.01 C465.54,441.05 465.63,440.43 465.33,439.98 C465.40,440.03 465.46,440.07 465.50,440.12 C465.89,440.50 466.22,443.58 466.39,447.93 ZM 601.14 663.76 C599.38,659.16 596.64,652.03 594.12,645.50 C592.81,642.10 591.60,638.85 590.48,635.70 C591.31,637.97 592.19,640.27 593.12,642.61 C595.92,649.70 599.01,657.75 599.98,660.50 C600.39,661.63 600.77,662.72 601.14,663.76 ZM 462.40 475.57 C465.41,469.65 466.22,467.87 466.50,462.93 L 466.50 467.50 L 462.40 475.57 ZM 609.18 678.84 C606.82,668.87 603.45,656.65 600.05,646.34 C604.09,658.57 607.01,668.85 609.18,678.84 ZM 477.51 236.28 C481.20,228.72 479.83,228.43 475.23,236.05 C474.41,237.41 473.72,238.63 473.13,239.80 C474.23,237.41 475.60,235.03 477.20,232.75 C480.59,227.94 480.70,229.75 477.51,236.28 ZM 562.01 584.51 C559.98,584.68 558.16,584.98 556.88,585.35 C558.78,584.38 560.49,583.97 561.64,584.42 C561.76,584.46 561.89,584.49 562.01,584.51 ZM 595.82 351.36 C591.80,352.42 586.14,351.28 575.46,347.46 C585.22,350.95 591.51,352.28 595.82,351.36 ZM 611.00 414.51 C600.38,413.62 589.18,411.36 580.08,408.41 C589.17,411.27 600.62,413.64 611.00,414.51 ZM 576.93 568.93 C577.87,583.80 579.56,596.50 582.40,608.86 C579.49,596.39 577.89,584.09 576.93,568.93 ZM 555.83 660.50 L 555.91 657.86 C555.96,656.45 557.04,651.70 558.34,647.16 C556.97,652.32 555.95,656.81 555.91,657.95 L 555.83 660.50 ZM 551.79 588.93 C548.98,591.50 546.98,594.09 545.34,597.35 C545.51,596.97 545.68,596.62 545.84,596.31 C547.17,593.71 549.38,591.07 551.79,588.93 ZM 460.18 234.61 C457.26,238.00 454.60,241.76 453.20,244.75 C454.66,241.63 457.23,237.98 460.18,234.61 ZM 381.17 524.74 C385.38,519.71 389.92,513.02 395.59,503.75 C389.89,513.06 385.39,519.72 381.17,524.74 ZM 456.95 252.42 C457.37,249.39 458.03,246.59 458.96,243.95 C458.04,246.61 457.36,249.44 456.95,252.42 ZM 581.09 412.79 C585.16,414.38 592.99,416.69 598.49,417.93 C592.99,416.69 585.19,414.39 581.15,412.81 C581.13,412.80 581.11,412.80 581.09,412.79 ZM 460.93 438.74 C460.69,438.71 460.44,438.68 460.18,438.65 C459.21,438.54 458.26,438.53 457.28,438.65 C458.27,438.53 459.23,438.54 460.23,438.65 C460.46,438.68 460.69,438.71 460.93,438.74 Z" fill="rgba(161,144,123,1)"/>
<path d="M 531.00 736.19 C531.00,735.06 535.16,723.36 536.94,719.50 C537.45,718.40 538.34,715.92 538.93,714.00 C539.51,712.07 542.03,708.02 544.52,705.00 C553.01,694.70 559.63,682.34 564.62,667.50 L 569.33 653.50 L 569.26 630.17 C569.22,617.35 568.92,606.58 568.59,606.26 C568.27,605.93 567.99,606.75 567.98,608.08 C567.97,609.88 567.74,610.14 567.08,609.10 C566.49,608.17 566.18,609.34 566.14,612.60 C566.09,617.48 563.12,630.66 558.45,646.77 C557.10,651.42 555.96,656.41 555.91,657.86 L 555.83 660.50 L 555.05 657.92 C554.16,654.99 554.87,650.19 558.02,638.00 C560.72,627.52 567.02,598.58 567.48,594.50 C567.66,592.85 568.13,590.71 568.52,589.75 C569.31,587.77 567.88,587.46 565.01,589.00 C562.76,590.20 560.25,596.70 556.13,612.00 C552.40,625.84 551.59,628.46 548.24,637.50 C544.19,648.40 542.60,648.85 545.41,638.31 C546.17,635.46 546.54,632.87 546.23,632.56 C545.92,632.25 546.16,632.00 546.75,632.00 C547.74,632.00 548.11,630.98 549.45,624.50 C549.83,622.65 551.93,614.65 556.91,596.04 C558.01,591.93 558.73,588.40 558.51,588.18 C558.29,587.96 556.83,588.70 555.25,589.82 C552.17,592.02 546.94,601.79 545.01,608.97 C544.35,611.40 540.87,619.27 537.27,626.45 C529.53,641.89 526.54,649.44 523.49,661.21 C521.17,670.16 518.43,676.02 516.23,676.76 C515.29,677.07 515.22,676.55 515.97,674.59 C516.51,673.16 516.68,672.00 516.35,672.00 C516.02,672.00 516.22,671.44 516.79,670.75 C517.36,670.06 518.32,666.80 518.92,663.50 C519.53,660.20 521.65,653.00 523.65,647.50 C525.64,642.00 527.57,635.70 527.93,633.50 C528.76,628.44 527.44,622.05 525.08,619.66 C523.50,618.06 522.98,618.00 521.11,619.16 C519.91,619.90 518.50,622.28 517.94,624.50 C516.82,628.96 510.81,646.98 506.11,660.00 C503.42,667.44 503.04,669.81 503.02,679.07 C503.01,684.88 503.47,692.20 504.05,695.33 C505.69,704.18 503.88,720.66 500.72,725.62 C498.35,729.36 494.00,733.94 494.00,732.71 C494.00,732.38 494.87,730.63 495.94,728.81 C500.24,721.46 501.28,716.17 500.60,705.01 C498.64,672.64 498.63,674.01 501.05,665.00 C502.30,660.33 505.23,651.78 507.56,646.00 C509.89,640.22 512.32,633.47 512.96,631.00 C516.24,618.43 518.17,615.00 521.96,615.00 C525.36,615.00 527.58,617.40 529.93,623.57 C531.50,627.72 531.84,628.07 532.44,626.18 C532.82,624.98 533.49,624.00 533.93,624.00 C534.95,624.00 540.31,612.06 542.29,605.39 C545.08,596.01 548.13,591.48 555.32,586.02 C556.38,585.22 560.07,584.53 564.07,584.39 C570.47,584.17 571.03,584.32 571.44,586.33 C571.69,587.52 572.16,602.45 572.49,619.50 C573.16,654.11 573.28,653.16 565.32,677.50 C560.63,691.84 559.25,694.49 549.98,707.00 C545.70,712.78 539.89,721.75 537.08,726.94 C531.59,737.06 531.00,737.96 531.00,736.19 ZM 397.00 728.35 C397.00,710.51 402.81,698.42 423.33,673.50 C434.74,659.65 438.01,654.94 443.82,644.00 C451.19,630.11 454.45,618.14 454.45,605.00 C454.44,598.53 453.78,591.73 452.72,587.28 C451.01,580.13 443.66,560.12 440.51,554.02 L 438.88 550.86 L 435.69 553.20 C427.31,559.37 417.07,563.14 399.89,566.41 C390.78,568.14 377.84,573.09 370.71,577.59 C359.70,584.53 366.10,577.50 378.00,569.57 C384.83,565.02 389.57,563.33 404.75,560.04 C416.65,557.46 421.83,554.76 433.13,545.26 C438.20,540.99 446.09,534.45 450.66,530.73 C458.12,524.65 463.47,519.00 463.52,517.17 C463.52,516.80 463.83,516.03 464.20,515.45 C464.57,514.88 464.47,513.76 463.99,512.98 C463.25,511.79 462.36,511.76 458.49,512.79 C453.67,514.08 440.95,522.10 437.50,526.03 C434.95,528.93 427.07,534.00 425.11,534.00 C423.86,534.00 423.88,533.80 425.25,532.75 C426.15,532.06 431.11,523.14 436.28,512.92 C441.45,502.71 448.48,490.02 451.90,484.73 C458.06,475.22 462.05,466.42 461.95,462.51 C461.92,461.02 459.57,462.95 452.84,470.00 C447.85,475.23 441.28,482.65 438.23,486.50 C430.80,495.90 426.85,500.03 425.87,499.42 C425.43,499.15 426.62,496.76 428.52,494.11 C430.42,491.47 431.76,489.09 431.50,488.83 C431.24,488.57 433.04,485.99 435.50,483.11 C437.96,480.22 440.32,477.32 440.74,476.64 C441.16,475.97 443.93,473.42 446.91,470.96 C453.65,465.40 460.63,456.10 462.06,450.77 C463.20,446.56 462.65,442.00 461.01,442.00 C460.49,442.00 457.84,445.26 455.12,449.25 C452.40,453.24 446.72,459.88 442.49,464.00 C435.80,470.53 425.00,484.68 425.00,486.92 C425.00,487.80 421.65,491.00 420.74,491.00 C420.40,491.00 422.40,486.39 425.16,480.75 C429.49,471.94 431.56,469.10 439.91,460.50 C450.09,450.03 453.42,445.77 452.84,444.01 C452.30,442.41 427.99,462.85 427.64,465.20 C427.54,465.91 425.49,468.98 423.09,472.00 C418.14,478.24 418.28,475.42 423.28,468.12 L 426.28 463.73 L 423.22 465.99 C421.54,467.24 418.54,470.56 416.56,473.38 C414.57,476.19 409.70,483.11 405.72,488.75 C401.75,494.39 397.19,501.14 395.59,503.75 C382.61,524.95 375.61,532.68 364.72,537.86 C358.36,540.89 350.35,543.26 354.50,540.88 C361.58,536.82 368.25,531.80 373.18,526.81 C378.93,521.00 392.33,501.75 392.33,499.32 C392.33,498.59 392.64,498.00 393.01,498.00 C393.61,498.00 404.82,482.93 409.15,476.32 C413.22,470.09 420.37,463.00 427.63,457.99 C431.96,455.00 438.20,450.39 441.50,447.73 C450.86,440.20 455.22,438.08 460.18,438.65 C465.50,439.26 465.93,439.54 465.29,442.01 C465.00,443.11 465.23,444.57 465.80,445.26 C466.40,445.98 466.76,450.97 466.67,457.00 C466.51,467.16 466.37,467.76 462.40,475.57 C460.15,480.01 456.15,486.95 453.51,490.98 C448.29,498.98 441.00,513.81 441.00,516.43 C441.00,517.81 441.36,517.88 443.25,516.92 C444.49,516.28 446.17,514.99 447.00,514.05 C448.63,512.18 457.81,509.00 461.57,509.00 C465.28,509.00 469.00,511.14 469.62,513.64 C470.47,517.00 467.44,521.25 456.57,531.98 C449.47,538.99 447.14,541.92 447.43,543.45 C447.84,545.50 450.97,554.07 455.56,565.67 C464.05,587.13 464.78,612.25 457.48,631.65 C451.17,648.42 443.62,660.41 426.11,681.48 C406.50,705.07 402.18,712.75 399.08,729.52 C398.49,732.71 397.78,735.55 397.50,735.83 C397.23,736.11 397.00,732.74 397.00,728.35 ZM 467.76 710.42 C466.74,709.41 468.10,707.00 469.68,707.00 C470.51,707.00 471.01,707.72 470.82,708.67 C470.48,710.46 468.77,711.43 467.76,710.42 ZM 469.72 697.65 C468.54,694.45 471.72,692.76 473.93,695.41 C474.83,696.50 474.80,697.01 473.80,697.63 C471.77,698.90 470.18,698.91 469.72,697.65 ZM 609.55 690.29 C607.92,683.40 606.04,677.55 599.98,660.50 C599.01,657.75 595.92,649.70 593.12,642.61 C583.18,617.48 578.72,597.13 576.93,568.93 C575.13,540.31 578.37,514.10 586.16,494.25 C587.61,490.57 589.52,489.81 588.65,493.27 C585.98,503.89 584.63,523.67 584.57,553.00 C584.51,581.67 584.71,585.62 586.79,597.00 C589.69,612.89 592.69,624.05 600.05,646.34 C607.19,667.96 614.16,698.00 612.03,698.00 C611.67,698.00 610.55,694.53 609.55,690.29 ZM 473.15 683.11 C471.13,681.83 472.20,678.55 474.76,678.18 C477.45,677.80 478.77,680.37 476.99,682.51 C475.58,684.22 475.03,684.30 473.15,683.11 ZM 481.40 667.23 C480.79,666.83 479.80,665.54 479.18,664.38 C477.68,661.53 480.65,658.72 484.66,659.18 C488.13,659.57 489.05,663.18 486.43,666.08 C484.59,668.11 483.20,668.43 481.40,667.23 ZM 488.22 648.44 C485.71,646.69 485.49,645.22 487.16,641.55 C488.09,639.50 489.03,639.00 491.96,639.00 C496.28,639.00 498.00,640.44 498.00,644.04 C498.00,649.15 492.66,651.55 488.22,648.44 ZM 566.03 646.00 C566.03,644.62 566.47,642.83 567.00,642.00 C567.77,640.81 567.97,641.02 567.97,643.00 C567.97,644.38 567.53,646.17 567.00,647.00 C566.23,648.19 566.03,647.98 566.03,646.00 ZM 500.82 627.96 C499.89,627.42 498.46,625.62 497.63,623.97 C496.23,621.15 496.27,620.82 498.25,618.98 C500.59,616.81 504.07,616.43 507.07,618.04 C509.77,619.48 509.57,624.12 506.69,626.83 C504.12,629.24 503.28,629.40 500.82,627.96 ZM 630.54 619.07 C630.23,618.56 629.69,611.91 629.34,604.29 C628.53,586.51 630.22,568.26 634.65,547.00 C646.76,488.86 647.52,483.71 646.74,464.55 C646.32,454.32 645.72,450.26 643.96,445.75 C642.73,442.59 641.31,440.00 640.80,440.00 C640.30,440.00 640.12,439.62 640.41,439.14 C641.42,437.51 634.12,430.34 628.33,427.27 C622.01,423.92 614.11,421.45 598.50,417.93 C593.00,416.70 585.16,414.38 581.09,412.79 C573.48,409.81 563.00,403.51 563.00,401.90 C563.00,400.64 563.21,400.70 568.12,403.43 C577.57,408.68 594.95,413.17 611.00,414.51 C631.06,416.18 643.68,423.47 650.48,437.30 C654.96,446.42 656.31,453.57 656.28,468.00 C656.25,483.27 654.09,496.41 647.02,524.31 C635.13,571.27 631.80,589.58 631.61,609.25 C631.55,615.16 631.41,619.99 631.31,620.00 C631.20,620.00 630.86,619.58 630.54,619.07 ZM 440.46 616.75 C440.09,615.51 435.83,606.62 431.00,596.99 C421.76,578.54 419.89,573.66 420.94,570.67 C421.56,568.90 421.65,568.90 423.70,570.67 C427.74,574.16 443.00,611.38 443.00,617.73 C443.00,619.85 441.18,619.15 440.46,616.75 ZM 511.19 602.96 C507.17,599.22 509.07,594.00 514.46,594.00 C520.36,594.00 523.22,599.68 519.17,603.35 C516.71,605.57 513.84,605.43 511.19,602.96 ZM 511.52 583.37 C508.81,580.67 510.00,576.77 514.22,574.51 C517.51,572.74 518.11,572.69 519.36,574.01 C521.96,576.73 522.15,579.53 519.94,582.34 C517.57,585.37 513.95,585.81 511.52,583.37 ZM 509.75 565.24 C508.79,565.03 507.99,564.77 507.98,564.68 C507.98,564.58 507.35,562.71 506.59,560.52 C505.26,556.72 505.31,556.44 507.64,554.28 C511.84,550.39 514.93,550.24 518.09,553.78 C519.61,555.47 520.76,557.45 520.65,558.19 C520.03,562.43 514.19,566.21 509.75,565.24 ZM 503.36 543.95 C498.51,542.12 496.49,535.67 499.83,532.65 C503.94,528.93 513.00,531.50 513.00,536.39 C513.00,541.01 507.34,545.45 503.36,543.95 ZM 494.65 519.17 C492.34,516.61 492.50,511.34 494.93,510.04 C497.09,508.88 501.01,508.68 503.42,509.61 C505.97,510.59 505.52,517.52 502.78,519.44 C499.82,521.52 496.68,521.41 494.65,519.17 ZM 487.50 500.03 C486.40,499.57 484.80,498.34 483.94,497.31 C482.60,495.69 482.57,494.97 483.71,492.18 C485.46,487.89 488.86,486.33 492.54,488.14 C496.20,489.94 497.44,492.11 496.63,495.33 C496.11,497.41 491.40,501.28 489.80,500.94 C489.63,500.90 488.60,500.49 487.50,500.03 ZM 390.08 478.95 C385.87,459.33 392.41,439.41 406.47,429.03 C413.04,424.17 415.54,422.92 431.61,416.47 C439.11,413.47 448.77,408.67 453.35,405.68 C471.17,394.07 484.31,373.80 489.11,350.52 C493.15,330.98 490.43,317.03 477.60,291.36 C471.81,279.77 470.03,272.19 470.02,259.00 C470.01,246.80 470.77,243.45 475.23,236.05 C479.93,228.27 481.26,228.74 477.27,236.78 C474.65,242.05 473.74,245.35 473.30,251.19 C472.22,265.46 475.65,277.11 486.77,296.91 C497.24,315.56 499.15,320.82 499.69,332.50 C500.08,340.94 499.76,344.02 497.63,352.28 C494.49,364.43 488.06,378.04 480.53,388.50 C469.60,403.69 463.10,408.57 436.50,421.53 C417.31,430.88 415.00,432.29 409.72,437.84 C401.33,446.66 396.00,459.33 396.00,470.45 C396.00,474.46 393.21,484.00 392.04,484.00 C391.56,484.00 390.68,481.73 390.08,478.95 ZM 482.25 475.46 C478.81,473.05 477.83,470.57 479.06,467.34 C480.39,463.85 481.64,463.03 485.75,463.02 C489.58,463.00 493.00,465.97 493.00,469.31 C493.00,471.60 489.74,476.00 488.04,476.00 C487.56,476.00 486.56,476.23 485.82,476.51 C485.09,476.80 483.48,476.32 482.25,475.46 ZM 480.54 447.85 C478.27,446.07 477.91,445.18 478.42,442.60 C479.17,438.79 481.42,437.00 485.47,437.00 C492.41,437.00 495.46,443.34 490.69,447.83 C487.75,450.59 484.03,450.60 480.54,447.85 ZM 485.13 424.90 C478.19,418.44 482.19,410.69 491.56,412.44 C498.16,413.68 499.98,420.16 494.92,424.41 C491.20,427.55 488.13,427.70 485.13,424.90 ZM 493.73 403.25 C491.79,401.09 490.72,396.88 491.74,395.40 C492.95,393.65 496.65,392.00 499.36,392.00 C502.67,392.00 505.89,396.11 505.25,399.50 C504.29,404.47 496.98,406.86 493.73,403.25 ZM 432.45 397.60 C431.47,392.35 427.42,388.09 422.69,387.33 C419.04,386.75 418.86,386.58 420.54,385.35 C421.55,384.61 423.44,384.00 424.74,384.00 C427.97,384.00 431.73,379.96 432.55,375.61 C433.42,370.97 434.40,371.04 435.83,375.84 C437.22,380.45 439.33,382.52 444.57,384.36 L 448.50 385.75 L 444.20 386.92 C439.65,388.17 436.48,391.87 435.33,397.27 C434.46,401.37 433.19,401.52 432.45,397.60 ZM 565.32 395.25 C558.87,388.23 556.71,381.63 557.22,370.50 C557.58,362.74 558.13,360.43 561.25,353.75 C563.24,349.49 564.58,346.00 564.23,346.00 C563.89,346.00 564.06,345.54 564.62,344.98 C565.32,344.28 568.77,345.07 575.46,347.46 C588.04,351.96 593.66,352.74 597.83,350.59 C601.57,348.66 603.23,345.58 609.53,329.00 C618.31,305.89 619.00,303.92 619.00,301.75 C619.00,300.33 619.34,299.94 619.99,300.59 C621.49,302.09 618.72,316.07 613.39,333.96 C608.10,351.70 606.19,355.99 602.48,358.42 C597.79,361.49 593.98,361.43 584.30,358.10 C579.33,356.40 574.56,355.00 573.71,355.00 C570.38,355.00 566.32,359.88 564.15,366.48 C560.58,377.38 561.72,386.35 567.85,395.43 C569.54,397.94 570.65,400.00 570.31,400.00 C569.96,400.00 567.72,397.86 565.32,395.25 ZM 505.25 383.33 C499.79,379.52 505.06,371.84 510.62,375.49 C513.54,377.40 513.61,378.95 510.93,382.37 C508.54,385.40 508.28,385.44 505.25,383.33 ZM 405.02 375.78 C404.99,365.56 398.54,355.12 391.17,353.36 C386.49,352.24 386.59,351.74 391.86,349.78 C399.73,346.84 404.04,340.13 405.52,328.50 L 406.28 322.50 L 407.64 330.28 C408.99,338.02 411.65,344.70 414.18,346.66 C414.90,347.23 417.64,348.55 420.25,349.60 C422.86,350.64 424.99,351.77 425.00,352.09 C425.00,352.42 423.30,353.19 421.22,353.82 C419.14,354.44 416.00,356.43 414.25,358.25 C410.98,361.62 407.01,371.26 406.98,375.91 C406.98,377.33 406.53,379.17 406.00,380.00 C405.31,381.07 405.03,379.84 405.02,375.78 ZM 511.10 362.62 C509.64,360.86 511.33,356.00 513.39,356.00 C516.29,356.00 518.00,357.26 518.00,359.41 C518.00,363.50 513.55,365.57 511.10,362.62 ZM 463.34 331.65 C471.75,320.62 470.59,308.49 459.29,289.41 C451.90,276.92 450.64,272.82 450.57,261.00 C450.51,251.61 450.78,249.89 453.20,244.75 C456.15,238.44 464.74,228.70 469.49,226.26 C472.20,224.87 472.04,225.21 467.83,229.72 C461.53,236.49 458.20,243.44 456.95,252.42 C455.53,262.58 457.15,268.50 466.79,288.48 C474.33,304.11 474.50,304.62 474.47,311.98 C474.42,320.79 471.52,327.58 465.53,332.84 C460.44,337.31 459.43,336.76 463.34,331.65 ZM 501.22 291.75 C489.84,281.78 484.47,270.11 484.53,255.50 C484.58,245.46 486.83,237.98 491.76,231.50 C495.71,226.32 504.64,219.61 509.00,218.55 L 511.50 217.94 L 509.00 219.72 C502.28,224.50 497.72,229.78 494.23,236.84 C490.67,244.06 490.50,244.84 490.51,254.45 C490.54,270.06 495.15,281.97 505.32,292.75 C509.75,297.44 506.93,296.75 501.22,291.75 Z" fill="rgba(203,171,134,1)"/>
</g>
</svg>