<svg xmlns="http://www.w3.org/2000/svg" width="1024" height="1024" viewBox="0 0 1024 1024">
<g>
<path d="M 493.00 698.37 C443.57,692.25 399.24,668.51 368.24,631.56 C335.91,593.03 319.61,542.62 323.93,494.50 C329.33,434.38 360.18,382.19 409.50,349.72 C433.87,333.67 462.00,323.31 490.22,319.98 C505.20,318.21 534.37,319.21 547.11,321.93 C576.66,328.24 601.16,339.24 624.26,356.58 C675.52,395.04 704.50,458.02 699.99,521.13 C693.76,608.29 632.80,678.14 547.68,695.65 C537.68,697.70 532.00,698.21 516.00,698.48 C505.27,698.66 494.92,698.61 493.00,698.37 ZM 546.47 686.04 C570.67,680.77 596.02,669.74 614.96,656.24 C626.07,648.33 642.67,632.69 651.27,622.03 C668.68,600.47 681.12,574.06 687.66,544.77 C690.20,533.36 690.40,530.89 690.41,509.50 C690.42,488.27 690.21,485.52 687.72,473.82 C680.37,439.34 664.49,408.97 641.11,384.70 C597.05,338.97 537.15,319.74 476.94,332.01 C462.63,334.93 450.35,339.21 435.34,346.52 C381.27,372.86 345.95,420.83 334.84,483.00 C333.99,487.75 333.53,497.84 333.58,510.50 C333.65,528.09 333.97,532.01 336.29,543.06 C343.00,574.96 357.36,604.14 377.94,627.70 C402.65,655.99 437.01,676.70 472.49,684.70 C489.26,688.48 493.86,688.88 516.00,688.54 C532.44,688.28 538.47,687.78 546.47,686.04 ZM 509.26 661.75 C507.88,660.01 506.93,638.88 508.13,636.73 C509.54,634.21 514.69,634.44 515.52,637.05 C516.68,640.71 516.23,660.02 514.95,661.56 C513.48,663.33 510.58,663.43 509.26,661.75 ZM 438.20 632.80 C436.45,631.05 436.73,627.55 438.83,624.96 C441.20,622.03 445.68,622.88 446.57,626.42 C447.84,631.46 441.61,636.21 438.20,632.80 ZM 578.31 630.52 C576.74,627.24 576.75,626.93 578.48,625.02 C580.96,622.28 583.45,622.48 585.93,625.63 C588.41,628.79 588.52,630.33 586.43,632.43 C583.64,635.22 580.16,634.40 578.31,630.52 ZM 388.65 583.17 C386.46,580.74 386.57,578.43 389.00,576.00 C391.40,573.60 394.29,573.43 396.43,575.57 C398.93,578.07 398.30,580.84 394.75,583.01 C390.77,585.43 390.71,585.44 388.65,583.17 ZM 628.40 582.67 C623.01,578.03 628.51,571.48 634.51,575.41 C637.47,577.36 637.78,580.99 635.17,583.35 C632.74,585.55 631.62,585.44 628.40,582.67 ZM 545.06 545.44 C521.28,526.31 520.66,525.90 517.85,527.06 C513.88,528.71 506.82,527.72 502.97,524.98 C499.43,522.46 496.06,516.02 496.02,511.72 C495.98,506.18 501.97,497.00 505.63,497.00 C506.26,497.00 507.04,495.99 507.35,494.75 C507.66,493.51 507.89,472.57 507.86,448.22 C507.80,401.98 507.89,401.00 512.07,401.00 C516.55,401.00 516.67,402.30 516.58,450.39 L 516.50 495.81 L 519.82 497.60 C521.65,498.59 524.28,501.33 525.67,503.70 C527.74,507.23 528.13,509.03 527.85,513.65 L 527.50 519.30 L 541.00 530.22 C576.38,558.84 576.59,559.04 574.23,562.62 C571.71,566.45 569.68,565.26 545.06,545.44 ZM 516.81 516.96 C521.36,512.72 518.25,505.00 512.00,505.00 C505.45,505.00 502.55,512.93 507.63,516.93 C510.97,519.55 514.02,519.56 516.81,516.96 ZM 361.22 512.44 C360.00,511.59 359.00,510.04 359.00,509.00 C359.00,505.37 362.77,504.00 372.72,504.00 C380.67,504.00 382.29,504.29 384.00,506.00 C385.10,507.10 386.00,508.45 386.00,509.00 C386.00,509.55 385.10,510.90 384.00,512.00 C382.29,513.71 380.67,514.00 372.72,514.00 C365.94,514.00 362.85,513.58 361.22,512.44 ZM 640.75 512.92 C638.33,511.51 638.45,506.37 640.93,505.04 C643.38,503.72 659.03,503.68 662.43,504.98 C664.23,505.66 665.00,506.69 665.00,508.40 C665.00,513.03 662.76,514.00 652.18,513.97 C646.86,513.95 641.71,513.48 640.75,512.92 ZM 389.13 441.91 C386.49,439.45 386.66,436.28 389.53,434.39 C391.27,433.24 392.00,433.32 394.78,435.01 C398.30,437.16 398.92,439.93 396.43,442.43 C394.28,444.58 391.81,444.40 389.13,441.91 ZM 627.57 442.43 C625.08,439.93 625.70,437.16 629.22,435.01 C632.00,433.32 632.73,433.24 634.47,434.39 C637.47,436.37 637.64,440.00 634.84,442.15 C631.94,444.39 629.62,444.47 627.57,442.43 ZM 438.56 392.78 C435.59,388.54 437.15,384.00 441.58,384.00 C444.16,384.00 445.59,385.52 446.53,389.27 C447.87,394.59 441.72,397.29 438.56,392.78 ZM 578.62 393.48 C576.62,391.47 576.60,390.67 578.53,386.95 C580.49,383.14 584.27,382.96 586.63,386.56 C588.22,388.98 588.20,389.26 586.30,391.81 C583.90,395.04 580.85,395.70 578.62,393.48 ZM 509.39 382.23 C507.89,381.24 506.74,368.43 507.58,362.08 C508.36,356.26 510.57,354.17 514.00,356.00 C515.83,356.98 516.00,358.09 516.00,368.84 C516.00,380.77 515.37,383.02 512.05,382.98 C511.20,382.98 510.00,382.64 509.39,382.23 Z" fill="rgba(0,0,0,1)"/>
</g>
</svg>