<svg xmlns="http://www.w3.org/2000/svg" width="1024" height="1024" viewBox="0 0 1024 1024">
<g>
<path d="M 486.50 681.90 C462.66,679.95 441.86,675.37 428.60,669.16 C397.94,654.79 402.89,633.61 439.75,621.50 C450.97,617.81 455.21,619.02 453.60,625.46 C453.09,627.50 451.74,628.29 445.74,630.07 C417.00,638.60 411.10,649.46 430.01,659.01 C468.63,678.50 566.99,676.90 598.15,656.28 C607.04,650.40 606.61,644.29 596.88,638.00 C593.70,635.95 587.14,633.06 582.30,631.58 C572.10,628.46 571.00,627.95 569.57,625.68 C568.39,623.82 569.47,621.37 572.22,619.63 C576.21,617.11 600.48,627.06 607.93,634.27 C623.49,649.33 612.60,665.17 580.24,674.55 C555.93,681.59 518.55,684.52 486.50,681.90 ZM 509.78 657.32 C507.74,656.78 502.94,650.27 484.83,623.50 C443.55,562.46 409.79,499.29 401.60,467.77 C398.35,455.29 396.60,438.68 397.46,428.54 C399.97,398.86 411.92,373.84 433.47,353.15 C449.97,337.30 468.68,327.76 491.79,323.41 C504.75,320.97 528.23,321.91 540.71,325.38 C582.05,336.87 611.60,366.96 622.75,408.93 C624.92,417.10 625.30,420.77 625.38,434.00 C625.48,450.05 624.89,454.31 620.35,470.50 C611.70,501.34 585.28,552.38 550.22,606.00 C526.70,641.97 514.57,658.44 512.03,657.88 C511.74,657.82 510.73,657.56 509.78,657.32 ZM 523.77 627.50 C556.94,579.28 586.03,528.95 601.22,493.50 C606.10,482.11 611.84,464.49 613.69,455.18 C616.36,441.84 615.94,423.12 612.72,410.88 C603.09,374.35 575.16,345.58 539.40,335.35 C528.37,332.19 507.18,331.06 495.20,332.97 C449.09,340.36 412.93,378.84 408.09,425.67 C407.05,435.71 408.07,450.89 410.49,461.28 C417.67,492.13 448.66,551.14 490.79,614.22 C509.23,641.81 511.43,644.89 512.13,644.16 C512.48,643.80 517.72,636.30 523.77,627.50 ZM 497.00 480.11 C488.56,477.39 483.70,474.54 477.24,468.56 C464.31,456.59 458.99,437.96 463.53,420.53 C469.73,396.73 494.60,380.18 518.45,383.99 C531.28,386.04 539.50,390.45 548.38,400.04 C568.11,421.35 565.30,454.29 542.25,471.89 C535.99,476.68 532.16,478.56 524.50,480.63 C517.42,482.54 503.70,482.28 497.00,480.11 ZM 528.25 468.76 C540.26,463.22 549.18,451.28 550.93,438.40 C554.42,412.66 531.69,389.93 506.40,393.87 C492.51,396.03 482.39,403.39 476.27,415.77 C472.66,423.09 472.50,423.82 472.53,433.45 C472.56,442.28 472.89,444.17 475.25,449.04 C480.25,459.32 488.16,466.58 498.30,470.19 C506.19,473.00 520.54,472.32 528.25,468.76 Z" fill="rgba(0,0,0,1)"/>
</g>
</svg>