<svg xmlns="http://www.w3.org/2000/svg" width="1024" height="1024" viewBox="0 0 1024 1024">
<g>
<path d="M 433.81 705.25 C432.98,704.29 427.24,695.74 421.04,686.25 C414.85,676.76 409.47,669.00 409.10,669.00 C408.73,669.00 402.59,670.75 395.46,672.90 C368.18,681.10 366.12,681.55 364.21,679.64 C362.19,677.62 360.96,681.48 383.69,618.71 L 399.24 575.77 L 397.70 568.13 C396.85,563.93 395.72,559.38 395.18,558.00 C392.91,552.20 387.95,547.11 379.97,542.36 C363.47,532.56 358.84,520.50 363.93,500.55 C367.06,488.28 365.80,481.48 358.43,470.76 C348.74,456.67 350.53,440.73 363.34,427.22 C372.55,417.49 373.48,414.86 373.49,398.50 C373.50,385.20 373.64,384.21 376.30,378.80 C380.19,370.87 387.29,364.72 395.78,361.94 C410.13,357.22 414.21,353.58 421.05,339.34 C426.10,328.86 429.77,324.75 438.00,320.40 C441.89,318.35 453.78,317.93 466.50,319.40 C475.52,320.44 481.77,318.20 491.30,310.51 C505.77,298.84 521.35,299.21 536.06,311.57 C543.61,317.91 548.23,319.51 558.00,319.17 C582.13,318.33 583.27,318.39 588.19,320.81 C595.74,324.53 600.64,330.09 605.39,340.31 C610.88,352.15 616.64,357.67 626.99,361.00 C639.21,364.93 645.59,370.31 650.09,380.47 C651.93,384.63 652.26,387.36 652.37,399.42 C652.53,415.75 652.89,416.78 662.11,426.85 C670.20,435.69 672.40,440.58 672.84,450.73 C673.23,459.59 672.41,461.98 663.84,476.86 C659.56,484.30 659.02,491.87 662.00,502.50 C666.98,520.26 661.19,534.03 645.15,542.58 C642.21,544.14 637.83,547.62 635.41,550.31 C631.06,555.14 630.48,556.53 627.52,568.85 L 625.99 575.20 L 630.92 588.85 C633.63,596.36 639.51,612.62 644.00,625.00 C657.82,663.16 662.00,675.24 662.00,677.03 C662.00,677.98 661.31,679.33 660.47,680.02 C659.21,681.07 655.20,680.21 637.35,675.03 C624.76,671.37 615.50,669.16 615.13,669.71 C614.78,670.23 609.33,678.61 603.00,688.32 C596.67,698.04 590.78,706.22 589.89,706.52 C589.01,706.81 587.65,706.80 586.88,706.51 C585.62,706.02 578.83,688.39 559.85,636.28 C553.68,619.35 553.54,619.08 551.04,619.78 C549.64,620.18 545.58,620.46 542.00,620.41 C536.72,620.34 533.90,619.60 527.00,616.49 C515.16,611.15 509.49,611.17 498.00,616.56 C490.91,619.89 488.60,620.50 483.06,620.50 C479.45,620.50 475.44,620.28 474.14,620.00 C471.61,619.47 471.75,619.12 446.50,688.20 C443.54,696.29 440.63,703.82 440.03,704.95 C438.68,707.46 435.82,707.60 433.81,705.25 ZM 450.87 653.48 L 464.79 615.72 L 461.14 612.00 C459.14,609.96 455.18,605.80 452.35,602.76 C446.30,596.26 441.83,594.50 429.05,593.55 C420.13,592.89 414.02,590.78 408.24,586.37 C406.39,584.95 404.75,583.96 404.60,584.15 C404.45,584.34 399.30,598.45 393.15,615.50 C387.00,632.55 380.02,651.90 377.64,658.50 C375.25,665.10 373.58,670.62 373.92,670.76 C374.27,670.90 382.80,668.57 392.89,665.59 C402.99,662.60 411.82,660.38 412.52,660.65 C413.22,660.92 418.68,668.49 424.65,677.48 C431.69,688.09 435.76,693.38 436.23,692.54 C436.63,691.83 443.22,674.26 450.87,653.48 ZM 600.60 677.53 C606.60,668.48 612.02,660.86 612.64,660.60 C613.27,660.35 622.21,662.61 632.51,665.62 C642.81,668.64 651.41,670.92 651.63,670.71 C652.01,670.32 621.38,585.04 620.56,584.22 C620.32,583.99 618.42,585.18 616.32,586.86 C611.05,591.08 605.26,592.90 594.06,593.86 C581.67,594.92 578.34,596.70 568.60,607.42 C560.95,615.84 560.83,616.07 561.94,619.25 C564.62,626.98 589.36,694.00 589.53,694.00 C589.63,694.00 594.61,686.59 600.60,677.53 ZM 495.37 609.25 C503.00,605.73 504.09,605.50 513.00,605.54 C521.78,605.58 523.12,605.87 530.66,609.29 C545.23,615.91 552.08,614.22 563.92,601.09 C573.95,589.96 579.73,587.01 593.49,585.97 C605.03,585.10 607.41,584.34 612.45,579.91 C617.07,575.86 619.37,571.27 620.94,563.00 C623.19,551.18 630.75,541.20 641.62,535.69 C651.22,530.83 655.94,523.66 655.98,513.88 C655.99,510.78 655.31,506.29 654.46,503.89 C650.61,492.97 651.74,480.99 657.48,471.88 C664.76,460.35 665.36,458.83 665.36,452.00 C665.36,444.05 663.00,439.00 655.57,431.04 C645.72,420.50 643.44,414.19 644.32,399.85 C645.09,387.14 643.52,381.47 637.60,375.54 C634.29,372.24 631.50,370.66 625.26,368.59 C610.66,363.72 605.05,358.56 598.02,343.50 C593.93,334.74 590.61,330.86 584.55,327.77 C581.02,325.97 579.59,325.83 571.54,326.54 C555.33,327.95 548.78,327.50 542.31,324.55 C539.12,323.09 533.93,319.88 530.79,317.41 C523.51,311.70 519.36,309.99 512.78,310.02 C506.51,310.05 501.17,312.29 495.00,317.50 C489.10,322.47 479.99,326.74 473.61,327.51 C470.80,327.85 464.67,327.51 460.00,326.77 C442.42,323.97 436.30,327.13 428.30,343.11 C422.38,354.93 414.61,363.30 406.93,366.13 C404.49,367.03 400.25,368.56 397.50,369.53 C394.45,370.61 390.69,373.10 387.86,375.90 C381.85,381.85 380.57,386.40 381.47,398.49 C382.57,413.17 379.94,420.72 370.01,431.33 C363.05,438.77 360.05,444.68 360.03,451.00 C360.00,457.44 361.49,461.94 365.51,467.57 C373.22,478.38 375.15,491.00 371.07,504.00 C368.62,511.78 368.54,514.10 370.47,520.57 C372.52,527.43 376.56,531.88 384.95,536.47 C396.49,542.80 401.88,550.13 404.61,563.22 C406.99,574.62 410.43,579.61 418.93,584.01 C420.27,584.70 425.95,585.60 431.56,586.00 C444.41,586.93 450.66,589.58 457.58,597.03 C471.09,611.59 472.82,612.70 482.37,612.90 C486.04,612.97 489.26,612.07 495.37,609.25 ZM 494.54 575.95 C458.29,570.29 425.80,546.02 410.02,512.82 C389.55,469.73 398.86,417.17 433.01,383.01 C451.63,364.39 474.54,353.64 501.60,350.82 C557.43,345.00 607.33,380.08 622.76,435.99 C625.16,444.72 625.38,447.07 625.37,464.50 C625.37,485.50 624.43,490.72 617.70,507.49 C607.32,533.35 583.58,557.50 558.11,568.10 C543.87,574.03 533.15,576.18 516.00,576.55 C507.48,576.73 497.82,576.46 494.54,575.95 ZM 541.50 565.61 C580.12,554.31 608.08,524.15 616.21,485.00 C618.82,472.47 618.31,450.52 615.14,438.67 C608.22,412.83 592.54,389.94 572.38,376.26 C527.25,345.64 465.12,354.52 431.36,396.41 C423.16,406.60 414.02,424.91 410.37,438.50 C407.99,447.36 407.68,450.33 407.67,464.50 C407.65,478.72 407.94,481.61 410.32,490.50 C420.95,530.25 451.54,559.12 492.00,567.58 C496.47,568.51 503.80,568.83 515.50,568.59 C530.28,568.29 533.67,567.90 541.50,565.61 ZM 467.19 530.25 C466.63,529.14 467.50,519.96 469.57,505.10 L 472.82 481.70 L 456.41 464.24 C447.39,454.64 440.00,445.96 440.00,444.95 C440.00,443.94 440.56,442.75 441.25,442.31 C441.94,441.86 452.75,439.87 465.29,437.88 C477.82,435.89 488.21,434.09 488.39,433.88 C488.56,433.67 492.79,425.17 497.80,415.00 C502.80,404.83 507.81,395.04 508.93,393.25 C512.86,386.99 513.89,388.09 526.09,411.75 C532.26,423.71 537.41,433.64 537.55,433.81 C537.68,433.98 548.23,435.82 560.98,437.89 C583.03,441.47 585.93,442.33 585.98,445.29 C586.00,446.14 565.34,468.45 557.60,475.96 C554.52,478.95 553.00,481.25 553.00,482.96 C552.99,484.36 554.39,495.29 556.11,507.26 C559.34,529.78 559.26,532.00 555.29,532.00 C554.49,532.00 544.58,527.21 533.28,521.35 L 512.72 510.70 L 505.61 514.31 C501.70,516.30 492.47,521.09 485.10,524.96 C477.72,528.83 470.88,532.00 469.88,532.00 C468.89,532.00 467.67,531.21 467.19,530.25 ZM 494.51 511.51 L 512.75 502.02 L 518.12 504.84 C521.08,506.40 529.27,510.71 536.32,514.43 C543.37,518.15 549.39,520.94 549.69,520.65 C549.99,520.35 548.97,510.89 547.43,499.62 L 544.63 479.15 L 548.46 474.82 C550.56,472.45 557.24,465.44 563.30,459.25 C569.36,453.06 574.14,447.84 573.91,447.66 C573.69,447.47 565.17,446.09 555.00,444.58 C544.83,443.07 535.60,441.63 534.50,441.37 C533.08,441.04 529.96,435.90 523.75,423.65 C518.94,414.16 514.37,405.52 513.58,404.45 C512.25,402.65 511.46,403.92 503.03,421.29 C496.08,435.60 493.34,440.30 491.54,440.99 C490.23,441.48 480.80,443.12 470.58,444.63 C460.36,446.15 452.00,447.71 452.00,448.11 C452.00,448.51 458.56,455.64 466.58,463.94 C479.58,477.41 481.09,479.33 480.60,481.77 C480.29,483.27 479.12,491.48 477.98,500.00 C476.85,508.52 475.68,516.74 475.38,518.25 C475.08,519.76 475.16,521.00 475.56,521.00 C475.95,521.00 484.48,516.73 494.51,511.51 Z" fill="rgba(0,0,0,1)"/>
</g>
</svg>